<?xml version="1.0" encoding="UTF-8" standalone="no"?>
<!-- Created with Inkscape (http://www.inkscape.org/) -->

<svg
   width="200mm"
   height="200mm"
   viewBox="0 0 200 200"
   version="1.1"
   id="svg1"
   xml:space="preserve"
   xmlns="http://www.w3.org/2000/svg"
   xmlns:svg="http://www.w3.org/2000/svg"><defs
     id="defs1" /><g
     id="layer1"><path
       d="m 9.21442,17.9379 v -6.5854 c 0,-0.5308 -0.31156,-0.8419 -0.83617,-0.8419 -0.24765,0 -0.45759,0.0834 -0.62892,0.2255 l -3.93984,3.2957 c -0.39279,0.3413 -0.403,0.8784 0,1.2166 l 3.93984,3.2993 c 0.17133,0.142 0.38127,0.2321 0.62892,0.2321 0.52461,0 0.83617,-0.3178 0.83617,-0.8419 z M 20.8207,8.8336 c -0.6364,0 -1.1308,0.50418 -1.1308,1.14062 v 0.82528 c 0,1.6947 -1.1559,2.7668 -2.9763,2.7668 H 7.77577 c -0.61381,0 -1.11843,0.5046 -1.11843,1.1117 0,0.6138 0.50462,1.1185 1.11843,1.1185 h 8.78783 c 3.3356,0 5.388,-1.815 5.388,-4.7432 V 9.97422 c 0,-0.63644 -0.4975,-1.14062 -1.1309,-1.14062 z"
       fill="#ffffff"
       fill-opacity="0.85"
       id="path1"
       style="display:inline;fill:#0d0000;fill-opacity:0.85"
       transform="matrix(0,-4.9963718,4.9963718,0,37.321736,148.01563)" /><path
       d="M 12.7372,0.841929 V 7.42727 c 0,0.52416 0.3115,0.83882 0.8361,0.83882 0.2477,0 0.4576,-0.08699 0.6321,-0.22902 l 3.9367,-3.29886 c 0.3994,-0.33154 0.4097,-0.86857 0,-1.21343 L 14.2054,0.222362 C 14.0309,0.083437 13.821,0 13.5733,0 13.0487,0 12.7372,0.308006 12.7372,0.841929 Z M 1.13396,9.94619 c 0.63333,0 1.13441,-0.50418 1.13441,-1.14062 V 7.98032 c 0,-1.69477 1.15234,-2.77655 2.9696,-2.77655 h 8.94453 c 0.6071,0 1.1117,-0.49486 1.1117,-1.10866 0,-0.61025 -0.5046,-1.11177 -1.1117,-1.11177 H 5.38801 C 2.05908,2.98334 0,4.78855 0,7.72649 v 1.07908 c 0,0.63644 0.504177,1.14062 1.13396,1.14062 z"
       fill="#ffffff"
       fill-opacity="0.85"
       id="path2"
       style="display:inline;fill:#000000;fill-opacity:0.85"
       transform="matrix(0,-4.9963718,4.9963718,0,37.321736,148.01563)" /></g></svg>
